<svg xmlns="http://www.w3.org/2000/svg" viewBox="0 0 147.10 44.27"><path fill="#223d46" stroke="#223d46" stroke-width="0.5" d="M22.14.25C10.05.25.25,10.05.25,22.14s9.8,21.88,21.89,21.88h3.65c2.01,0,3.65-1.63,3.65-3.65s-1.63-3.65-3.65-3.65h-3.65c-8.06,0-10.94-6.53-10.94-14.59s2.89-14.59,10.94-14.59,10.94,6.53,10.94,12.82v9.98c0,4.53,0,8.21,0,8.21,0,0,0,.68,0,1.51,0,1.51,2.45,3.96,5.47,3.96s5.47-2.45,5.47-5.47v-22.46C44.02,10.05,34.22.25,22.14.25"/><g transform="translate(50.27,3)"><path fill="#223d46" d="M12.36,20.6c-4.53,0-6.17-3.66-6.18-8.19v-.03s0-.02,0-.02c0,0,0,0,0,0v-2.28c0-2.27,1.63-5.96,6.18-5.96s6.18,3.69,6.18,5.96v4.55c0,2.28-1.63,5.96-6.18,5.96M12.36,0C5.53,0,0,5.53,0,12.36c0,0,0,0,0,0v25.74s0,0,0,0v.85c0,.85,1.38,2.24,3.09,2.24s3.09-1.38,3.09-3.09v-7.53c0-4.16.41-7.29.91-7,.91.53,3.02,1.14,5.27,1.14,6.83,0,12.36-5.53,12.36-12.36S19.19,0,12.36,0"/><path fill="#223d46" d="M29.87,0c1.7,0,3.08,1.38,3.08,3.08s-1.38,3.08-3.08,3.08-3.08-1.38-3.08-3.08S28.16,0,29.87,0"/><path fill="#223d46" d="M84.47,20.6c-4.55,0-6.18-3.69-6.18-8.24s1.63-8.24,6.18-8.24,6.18,3.69,6.18,8.24-1.63,8.24-6.18,8.24M84.47,0c-6.83,0-12.36,5.53-12.36,12.36s5.54,12.36,12.36,12.36,12.36-5.53,12.36-12.36S91.3,0,84.47,0"/><path fill="#223d46" d="M60.78,0c-2.38,0-4.54.9-5.44,1.71-.41.37-1.08.37-1.49,0C53.23.77,50.79,0,48.41,0,43.29,0,39.14,4.15,39.14,9.27v4.12s0,0,0,0v1.05c0,.55,0,1,0,1,0,0,0,0,0,0v1c0,1.85-.25,4.15-3.09,4.15s-3.09-2.3-3.09-5.15v-4.22c0-1.71-1.38-3.09-3.09-3.09s-3.09,1.38-3.09,3.09v4.22c0,5.12,4.15,9.27,9.27,9.27s9.27-4.15,9.27-9.27v-4.22s0,0,0,0v-.98c0-.54,0-.97,0-.97,0,0,0,0,0,0v-1.42c-1.14-2.06.25-3.73,3.09-3.73s3.09,2.29,3.09,3.71v1.42s0,.01,0,.02v7.36c0,2.76,0,5.38,0,5.85,0,.85,1.38,2.24,3.09,2.24s3.09-1.38,3.09-3.09v-12.36h0c0-2.85.24-5.15,3.09-5.15s3.09,2.31,3.09,5.15c0,0,0,.9,0,2,0,0,0-2,0,8.36v2.85c0,1.24,1.38,2.24,3.09,2.24,1.71,0,3.09-1.38,3.09-2.24,0-.47,0-1.75,0-2.85v-10.36s0-1.15,0-2.56C70.05,3.01,65.9,0,60.78,0"/></g></svg>